1.9Hzlow3min_grf.mot
version=1
nRows=15
nColumns 19
inDegrees=yes
endheader
time	1_ground_force_vx	1_ground_force_vy	1_ground_force_vz	1_ground_force_px	1_ground_force_py	1_ground_force_pz	1_ground_torque_x	1_ground_torque_y	1_ground_torque_z	2_ground_force_vx	2_ground_force_vy	2_ground_force_vz	2_ground_force_px	2_ground_force_py	2_ground_force_pz	2_ground_torque_x	2_ground_torque_y	2_ground_torque_z
            0.005000	            0.227705	           -1.078601	           -0.693045	           -0.159528	            0.006236	           -0.405105	            0.124154	           -0.065002	            0.103216	          -10.263974	           13.423692	           -4.922070	           -0.029612	            0.006004	           -0.593296	            0.020266	           -0.026505	            0.009718
            0.005500	            0.091425	            0.180677	           -0.091166	           -0.159528	            0.006236	           -0.405105	            0.097782	           -0.129511	            0.040701	           -9.982292	           13.241228	           -5.110559	           -0.035125	            0.005984	           -0.593374	            0.050214	           -0.066607	            0.025708
            0.006000	           -0.091782	           -0.720687	           -0.094576	           -0.159528	            0.006236	           -0.405105	            0.023383	           -0.074391	            0.089730	          -10.355159	           12.687932	           -5.253155	           -0.015020	            0.006012	           -0.580684	            0.022263	           -0.027278	            0.011294
            0.006500	           -0.090596	           -0.362319	            0.411385	           -0.159528	            0.006236	           -0.405105	            0.039022	            0.064523	            0.033879	          -10.124068	           13.608180	           -4.874544	           -0.041185	            0.005980	           -0.598142	            0.073849	           -0.099263	            0.035557
            0.007000	            0.139386	           -1.444851	            0.635458	           -0.159528	            0.006236	           -0.405105	            0.029843	            0.221933	            0.006793	          -10.213116	           12.318804	           -4.879104	           -0.015765	            0.005996	           -0.577014	           -0.025892	            0.031230	           -0.012369
            0.007500	            0.092615	           -0.722421	            0.317672	           -0.159528	            0.006236	           -0.405105	            0.174612	            0.193957	            0.060727	          -10.214466	           12.687268	           -4.924718	           -0.027767	            0.005991	           -0.587743	            0.007572	           -0.009406	            0.003651
            0.008000	            0.322057	           -0.722770	            0.408815	           -0.159528	            0.006236	           -0.405105	            0.058035	            0.000093	            0.032363	          -10.214466	           12.687268	           -4.924718	           -0.024567	            0.006004	           -0.588222	            0.001477	           -0.001834	            0.000712
            0.008500	            0.321245	           -1.261994	            0.039649	           -0.159528	            0.006236	           -0.405105	            0.111544	           -0.119994	            0.012937	          -10.257390	           11.582711	           -5.069425	           -0.004303	            0.006009	           -0.569054	           -0.047546	            0.053689	           -0.023498
            0.009000	            0.091509	           -0.900721	           -0.141660	           -0.159528	            0.006236	           -0.405105	            0.081757	           -0.148164	            0.078296	          -10.210560	           11.583047	           -5.116373	           -0.001866	            0.006018	           -0.569056	            0.009040	           -0.010255	            0.004530
            0.009500	           -0.183648	           -0.359977	           -0.138659	           -0.159528	            0.006236	           -0.405105	            0.156220	           -0.064682	           -0.027269	          -10.023140	           11.583557	           -5.069524	           -0.007179	            0.005995	           -0.568067	           -0.054933	            0.063485	           -0.027784
            0.010000	           -0.137724	           -0.179899	           -0.092143	           -0.159528	            0.006236	           -0.405105	            0.022960	            0.055076	            0.069514	           -9.792837	           12.688958	           -4.971825	           -0.022197	            0.005998	           -0.584188	            0.053004	           -0.068679	            0.026910
            0.010500	           -0.366142	           -0.181320	            0.229417	           -0.159528	            0.006236	           -0.405105	            0.046443	            0.184958	           -0.071348	           -9.790302	           11.953369	           -5.256022	           -0.017429	            0.005959	           -0.568291	            0.021743	           -0.026547	            0.011673
            0.011000	            0.138784	           -1.263603	            0.406951	           -0.159528	            0.006236	           -0.405105	            0.039754	            0.129090	            0.100354	          -10.025840	           12.320485	           -5.160752	           -0.023158	            0.005976	           -0.578858	           -0.029920	            0.036768	           -0.015401
            0.011500	            0.230632	           -0.903447	            0.499981	           -0.159528	            0.006236	           -0.405105	            0.016683	            0.018533	            0.028642	           -9.975790	           11.400917	           -5.445626	           -0.004442	            0.005971	           -0.558522	           -0.032341	            0.036961	           -0.017654
            0.012000	            0.138409	           -1.082747	            0.270156	           -0.159528	            0.006236	           -0.405105	            0.157947	           -0.110817	            0.005035	           -9.837878	           12.137850	           -5.396130	           -0.018455	            0.005969	           -0.572327	            0.040446	           -0.049902	            0.022185
